<svg id="Layer_1" data-name="Layer 1" xmlns="http://www.w3.org/2000/svg" viewBox="0 0 104.9 81.7"><title>mastercard</title><g id="g3125"><g id="g3115"><g id="g3110"><path id="path2997" d="M350,412.9a32.5,32.5,0,1,1-32.4-32.4A32.4,32.4,0,0,1,350,412.9Z" transform="translate(-245.2 -380.5)" fill="#f7a01d" fill-rule="evenodd"/><path id="path2995" d="M310.1,412.9a32.5,32.5,0,1,1-32.5-32.4,32.5,32.5,0,0,1,32.5,32.4Z" transform="translate(-245.2 -380.5)" fill="#e91e25" fill-rule="evenodd"/><path id="path2999" d="M297.7,387.3a32.4,32.4,0,0,0,0,51,32.4,32.4,0,0,0,0-51Z" transform="translate(-245.2 -380.5)" fill="#f26122" fill-rule="evenodd"/></g><g id="g3043"><g id="text3045"><path id="path3057" d="M349.9,430.1v-1.2h-.3l-.3.7-.3-.7h-.3v1.2h.2v-.9l.3.8h.1l.3-.8v.9Zm-2,0v-.9h.5V429h-.9v.2h.4v.9Z" transform="translate(-245.2 -380.5)" fill="#f7a01d"/></g></g></g><g id="g3093"><g id="g3081"><path id="path3006" d="M252.5,461.4h-1.9v-8.6h1.9v1.1s1.5-1.3,2.5-1.2a3.9,3.9,0,0,1,2.9,1.6,3.4,3.4,0,0,1,2.9-1.6,3.2,3.2,0,0,1,3.4,2.6v6.1h-1.8v-5.3a1.7,1.7,0,0,0-1.9-1.6,2,2,0,0,0-2.2,1.6v5.3h-1.8v-5.3a1.9,1.9,0,0,0-1.9-1.7c-2.1,0-2.1,1.7-2.1,1.7Z" transform="translate(-245.2 -380.5)" fill="#010101"/><path id="path3008" d="M308.4,452.6a6.2,6.2,0,0,0-2.6,1.2v-1.1H304v8.6h1.8V456s0-1.7,2.2-1.7l1,.2h0l.6-1.7Z" transform="translate(-245.2 -380.5)" fill="#010101"/><path id="path3013" d="M334.2,452.6a6.3,6.3,0,0,0-2.5,1.2v-1.1h-1.8v8.6h1.8V456s0-1.7,2.2-1.7l.9.2h0l.7-1.7-1.3-.2Z" transform="translate(-245.2 -380.5)" fill="#010101"/><path id="path3015" d="M270.1,452.6a4.3,4.3,0,0,0-4.3,4.4c0,2.1,1.7,4.7,4.3,4.7a4.6,4.6,0,0,0,2.8-1.1v.8h1.8v-8.6h-1.8v1.1a3.7,3.7,0,0,0-2.8-1.3Zm.3,1.7a2.8,2.8,0,0,1,2.7,2.9,2.7,2.7,0,1,1-5.3,0A2.8,2.8,0,0,1,270.4,454.3Z" transform="translate(-245.2 -380.5)" fill="#010101"/><path id="path3020" d="M322.8,452.6a4.3,4.3,0,0,0-4.2,4.4c0,2.1,1.7,4.7,4.2,4.7a4.6,4.6,0,0,0,2.8-1.1v.8h1.8v-8.6h-1.8v1.1a3.7,3.7,0,0,0-2.8-1.3Zm.4,1.7a2.9,2.9,0,0,1,2.7,2.9,2.9,2.9,0,0,1-2.7,2.9,2.9,2.9,0,0,1-2.7-2.9A2.8,2.8,0,0,1,323.2,454.3Z" transform="translate(-245.2 -380.5)" fill="#010101"/><path id="path3022" d="M340.2,452.6a4.3,4.3,0,0,0-4.3,4.4c0,2.1,1.7,4.7,4.3,4.7a4.6,4.6,0,0,0,2.8-1.1v.8h1.8v-12H343v4.5a3.7,3.7,0,0,0-2.8-1.3Zm.4,1.7a2.8,2.8,0,0,1,2.6,2.9,2.7,2.7,0,1,1-5.3,0A2.8,2.8,0,0,1,340.6,454.3Z" transform="translate(-245.2 -380.5)" fill="#010101"/><path id="path3024" d="M280.3,461.7a8.7,8.7,0,0,1-3.7-1.1l.9-1.2a8.7,8.7,0,0,0,2.8.7c.7,0,2-.3,2-1s-2.1-1.1-2.1-1.1-3.3,0-3.3-2.7,1.6-2.7,3.6-2.7a11.7,11.7,0,0,1,3.4,1l-.8,1.5a9.7,9.7,0,0,0-2.7-.7c-.7,0-1.7.3-1.7.9s5.3-.1,5.3,3.6-2,2.8-3.7,2.8Z" transform="translate(-245.2 -380.5)" fill="#010101"/><path id="path3026" d="M287.2,450.4v2.5h-1.6v1.8h1.6V459a2.8,2.8,0,0,0,3,2.9,11.1,11.1,0,0,0,2.6-.6l-.7-1.8a3.1,3.1,0,0,1-1.5.6c-1.4,0-1.4-1-1.4-1v-4.2h3V453h-3v-2.5h-2Z" transform="translate(-245.2 -380.5)" fill="#010101"/><path id="path3034" d="M298,452.7a4.6,4.6,0,0,0,.3,9.1,8,8,0,0,0,3.2-1.2l-.8-1.5a5.1,5.1,0,0,1-2.6,1,2.5,2.5,0,0,1-2.5-2.3h6.3C302,457.8,302.5,452.7,298,452.7Zm-.2,1.7h.2a2,2,0,0,1,2.2,2h-4.5A2,2,0,0,1,297.8,454.4Z" transform="translate(-245.2 -380.5)" fill="#010101"/><path id="path3037" d="M316.7,459.1l.9,1.7a5.6,5.6,0,0,1-2.8.9,4.7,4.7,0,0,1-4.9-4.5c0-3.6,2.8-4.5,4.7-4.5a6.4,6.4,0,0,1,3.1.9l-1,1.7a2.6,2.6,0,0,0-2.1-.8,2.7,2.7,0,0,0-2.6,2.8,2.6,2.6,0,0,0,2.6,2.8,4.9,4.9,0,0,0,2.1-1Z" transform="translate(-245.2 -380.5)" fill="#010101"/></g><g id="g3064"><g id="text3066"><path id="path3078" d="M348.8,460.2c-.4,0-.5.2-.7.3a.9.9,0,0,0-.3.7,1.1,1.1,0,0,0,.3.7c.2.1.3.3.7.3s.4-.2.6-.3a.9.9,0,0,0,.3-.7,1.1,1.1,0,0,0-.3-.7A.8.8,0,0,0,348.8,460.2Zm0,1.5c-.2,0-.4,0-.5-.2s-.2-.3-.2-.5a.6.6,0,0,1,.2-.5h.9a.6.6,0,0,1,.2.5c0,.2,0,.4-.2.5A.4.4,0,0,1,348.8,461.7Zm0-1h-.4v.8h.2v-.3h0l.2.3h.1l-.3-.3h.2V461s0-.1-.2-.1Zm0,.2Z" transform="translate(-245.2 -380.5)" fill="#010101"/></g></g></g></g></svg>