<svg id="Layer_1" data-name="Layer 1" xmlns="http://www.w3.org/2000/svg" viewBox="0 0 152.5 54.2"><title>visa</title><g id="形状_1" data-name="形状 1" style="isolation:isolate"><g id="形状_1-2" data-name="形状 1"><path d="M274.4,395.2l-8.5,52.3h13.6l8.5-52.3Zm-19.9,0-13,36-1.5-7.7h0l-.3-1.7a43.4,43.4,0,0,0-12.1-15.3,55.5,55.5,0,0,0-6.1-4.2l11.8,45.3h14.2l21.7-52.3Zm53.1,14.5c0-5.9,13.3-5.2,19.1-1.9l1.9-11.2a39,39,0,0,0-12.2-2.3c-6.8,0-22.8,3-22.8,17.3s18.8,13.7,18.8,20.8-16.9,5.8-22.5,1.4l-2,11.7a37.8,37.8,0,0,0,15.4,3c9.3,0,23.3-4.8,23.3-17.9S307.6,415.6,307.6,409.7Zm55.5-14.5H352.2c-5.1,0-6.3,3.9-6.3,3.9l-20.3,48.4h14.2l2.8-7.8h17.3l1.6,7.8H374ZM346.6,429l7.2-19.6,4,19.6Z" transform="translate(-221.5 -394.3)" fill="#0b5dab" fill-rule="evenodd"/></g></g></svg>